<svg width="68" height="69" viewBox="0 0 68 69" fill="none" xmlns="http://www.w3.org/2000/svg">
<path fill-rule="evenodd" clip-rule="evenodd" d="M26.7153 25.9121H37.2383V31.1538C38.7542 28.1391 42.6415 25.4305 48.481 25.4305C59.6755 25.4305 62.3332 31.4315 62.3332 42.4418V62.8333H50.9998V44.9493C50.9998 38.6791 49.484 35.1431 45.625 35.1431C40.2728 35.1431 38.0487 38.954 38.0487 44.9465V62.8333H26.7153V25.9121ZM7.2815 62.3516H18.6148V25.4305H7.2815V62.3516ZM20.2383 13.3916C20.2388 14.3416 20.0504 15.2821 19.6841 16.1586C19.3178 17.0351 18.781 17.8301 18.1048 18.4973C16.7346 19.8591 14.88 20.6213 12.9482 20.6166C11.0198 20.6153 9.16938 19.855 7.79717 18.5001C7.12344 17.8306 6.58843 17.0348 6.22281 16.1582C5.85719 15.2816 5.66814 14.3414 5.6665 13.3916C5.6665 11.4735 6.4315 9.63746 7.8 8.28313C9.17101 6.92641 11.0222 6.16578 12.951 6.16663C14.8833 6.16663 16.7363 6.92879 18.1048 8.28313C19.4705 9.63746 20.2383 11.4735 20.2383 13.3916Z" fill="#E9E9E9"/>
</svg>
