<svg width="68" height="69" viewBox="0 0 68 69" fill="none" xmlns="http://www.w3.org/2000/svg">
<path d="M33.9998 25.648C29.1256 25.648 25.1479 29.6258 25.1479 34.5C25.1479 39.3742 29.1256 43.3519 33.9998 43.3519C38.874 43.3519 42.8518 39.3742 42.8518 34.5C42.8518 29.6258 38.874 25.648 33.9998 25.648ZM60.549 34.5C60.549 30.8344 60.5822 27.202 60.3764 23.543C60.1705 19.293 59.201 15.5211 56.0932 12.4133C52.9787 9.29883 49.2135 8.33594 44.9635 8.13008C41.2979 7.92422 37.6654 7.95742 34.0065 7.95742C30.3408 7.95742 26.7084 7.92422 23.0494 8.13008C18.7994 8.33594 15.0276 9.30547 11.9197 12.4133C8.8053 15.5277 7.8424 19.293 7.63655 23.543C7.43069 27.2086 7.46389 30.841 7.46389 34.5C7.46389 38.159 7.43069 41.798 7.63655 45.457C7.8424 49.707 8.81194 53.4789 11.9197 56.5867C15.0342 59.7012 18.7994 60.6641 23.0494 60.8699C26.7151 61.0758 30.3475 61.0426 34.0065 61.0426C37.6721 61.0426 41.3045 61.0758 44.9635 60.8699C49.2135 60.6641 52.9854 59.6945 56.0932 56.5867C59.2076 53.4723 60.1705 49.707 60.3764 45.457C60.5889 41.798 60.549 38.1656 60.549 34.5ZM33.9998 48.1199C26.4627 48.1199 20.3799 42.0371 20.3799 34.5C20.3799 26.9629 26.4627 20.8801 33.9998 20.8801C41.5369 20.8801 47.6197 26.9629 47.6197 34.5C47.6197 42.0371 41.5369 48.1199 33.9998 48.1199ZM48.1776 23.5031C46.4178 23.5031 44.9967 22.082 44.9967 20.3223C44.9967 18.5625 46.4178 17.1414 48.1776 17.1414C49.9373 17.1414 51.3584 18.5625 51.3584 20.3223C51.3589 20.7401 51.277 21.154 51.1174 21.5401C50.9577 21.9263 50.7234 22.2772 50.4279 22.5726C50.1325 22.8681 49.7816 23.1024 49.3954 23.2621C49.0093 23.4217 48.5954 23.5036 48.1776 23.5031Z" fill="#E9E9E9"/>
</svg>
